<svg width="34" height="40" viewBox="0 0 34 40" version="1.1" xmlns="http://www.w3.org/2000/svg" xmlns:xlink="http://www.w3.org/1999/xlink">
<title>ios</title>
<desc>Created using Figma</desc>
<g id="Canvas" transform="translate(-11485 -8668)">
<g id="ios">
<g id="ios">
<use xlink:href="#path0_fill" transform="translate(11485.8 8668)"/>
</g>
</g>
</g>
<defs>
<path id="path0_fill" fill-rule="evenodd" d="M 22.2637 6.39746C 23.6689 4.66846 24.374 2.80078 24.374 0.800293C 24.374 0.614746 24.3682 0.428711 24.3555 0.241699C 24.3496 0.161133 24.3418 0.0805664 24.333 0C 23.3545 0.0527344 22.3135 0.359863 21.2139 0.916016C 20.1113 1.48047 19.2012 2.18799 18.4863 3.03857C 17.0547 4.71924 16.248 6.77441 16.248 8.69482C 16.248 8.96045 16.2646 9.21289 16.293 9.45264C 18.5166 9.64014 20.5684 8.45264 22.2637 6.39746ZM 29.7441 35.0386C 30.5449 33.856 31.2354 32.5698 31.8193 31.1724C 32.0596 30.5796 32.2852 29.9624 32.5 29.3179C 31.5117 28.8882 30.623 28.2837 29.8281 27.501C 28.0723 25.8145 27.1797 23.6904 27.1533 21.1382C 27.125 17.8618 28.5605 15.3076 31.4639 13.4839C 29.8418 11.0938 27.4033 9.76709 24.1572 9.49561C 23.6514 9.45117 23.0996 9.47314 22.5 9.56201C 21.6777 9.68359 20.7656 9.93066 19.7637 10.3042C 17.9316 11.001 16.8516 11.3506 16.5322 11.3506C 16.1055 11.3506 15.1328 11.0518 13.6172 10.4619C 12.0977 9.87451 10.875 9.57568 9.94336 9.57568C 8.23926 9.60498 6.65625 10.064 5.19238 10.9653C 3.72754 11.8667 2.55762 13.0942 1.67773 14.6504C 1.19727 15.4819 0.820312 16.3823 0.546875 17.3516C 0.182617 18.6401 0 20.0503 0 21.5806C 0 23.9209 0.414062 26.3379 1.24121 28.834C 2.0127 31.145 2.99805 33.1724 4.19629 34.9204C 5.31348 36.5576 6.24609 37.7129 6.99121 38.3872C 8.15918 39.5127 9.33008 40.0488 10.5039 39.9966C 11.2754 39.9697 12.2852 39.6958 13.5381 39.1694C 14.7891 38.646 15.959 38.3872 17.0498 38.3872C 18.0898 38.3872 19.2275 38.646 20.4658 39.1694C 21.6992 39.6958 22.7588 39.9546 23.6377 39.9546C 24.8623 39.9253 26.0049 39.4043 27.0723 38.3872C 27.7607 37.7671 28.6533 36.6514 29.7441 35.0386Z"/>
</defs>
</svg>
