<?xml version="1.0" encoding="UTF-8" standalone="no"?>
<svg width="40px" height="40px" viewBox="0 0 40 40" version="1.1" xmlns="http://www.w3.org/2000/svg" xmlns:xlink="http://www.w3.org/1999/xlink">
    <!-- Generator: Sketch 47.1 (45422) - http://www.bohemiancoding.com/sketch -->
    <title>Artboard</title>
    <desc>Created with Sketch.</desc>
    <defs></defs>
    <g id="Page-1" stroke="none" stroke-width="1" fill="none" fill-rule="evenodd">
        <g id="Artboard" fill-rule="nonzero" fill="#67DAF9">
            <circle id="Oval" cx="19.9107413" cy="19.9899143" r="3.58043369"></circle>
            <path d="M10.0016683,37.1043231 C8.92255701,36.4812979 8.22498143,35.3554023 7.90402347,33.8501908 C7.6127204,32.4840534 7.62912974,30.7978161 7.93729264,28.8795689 C8.55313174,25.0461041 10.3068095,20.4386372 12.8980846,15.950417 C15.4893598,11.4621968 18.6027043,7.63973387 21.6146627,5.18966914 C23.121832,3.96366865 24.5739517,3.1063391 25.9027129,2.67554623 C27.3667432,2.20089827 28.6905852,2.24206862 29.7696966,2.86509383 C30.8488079,3.48811905 31.5463835,4.61401468 31.8673414,6.11922611 C32.1586445,7.48536354 32.1422352,9.17160084 31.8340723,11.089848 C31.2182332,14.9233129 29.4645554,19.5307798 26.8732803,24.019 C24.2820051,28.5072201 21.1686606,32.3296831 18.1567022,34.7797478 C16.6495329,36.0057483 15.1974132,36.8630778 13.868652,37.2938707 C12.4046217,37.7685187 11.0807797,37.7273483 10.0016683,37.1043231 Z M10.8589553,35.6194586 C12.1412825,36.3598105 14.3957088,35.6289111 17.0747471,33.4496589 C19.9136267,31.1403843 22.8959606,27.478772 25.3884157,23.161713 C27.8808709,18.8446541 29.5607532,14.431071 30.1412039,10.8178918 C30.6889726,7.40815053 30.1947368,5.09031032 28.9124096,4.34995837 C27.6300824,3.60960642 25.3756561,4.34050582 22.6966178,6.51975807 C19.8577382,8.82903266 16.8754043,12.490645 14.3829492,16.8077039 C11.890494,21.1247629 10.2106117,25.5383459 9.63016103,29.1515251 C9.08239234,32.5612664 9.57662808,34.8791066 10.8589553,35.6194586 Z" id="Oval"></path>
            <path d="M0.142713061,19.9899143 C0.142713061,18.7438638 0.768979492,17.5767979 1.91205184,16.5462344 C2.94951004,15.6108898 4.41803905,14.7819821 6.23337128,14.0897354 C9.86116877,12.7063353 14.728191,11.9213313 19.9107413,11.9213313 C25.0932916,11.9213313 29.9603138,12.7063353 33.5881113,14.0897354 C35.4034436,14.7819821 36.8719726,15.6108898 37.9094308,16.5462344 C39.0525031,17.5767979 39.6787695,18.7438638 39.6787695,19.9899143 C39.6787695,21.2359647 39.0525031,22.4030307 37.9094308,23.4335941 C36.8719726,24.3689387 35.4034436,25.1978465 33.5881113,25.8900932 C29.9603138,27.2734933 25.0932916,28.0584972 19.9107413,28.0584972 C14.728191,28.0584972 9.86116877,27.2734933 6.23337128,25.8900932 C4.41803905,25.1978465 2.94951004,24.3689387 1.91205184,23.4335941 C0.768979492,22.4030307 0.142713061,21.2359647 0.142713061,19.9899143 Z M1.85728694,19.9899143 C1.85728694,21.4706182 3.61747757,23.057559 6.8442845,24.288048 C10.2636148,25.5919526 14.925831,26.3439233 19.9107413,26.3439233 C24.8956516,26.3439233 29.5578678,25.5919526 32.9771981,24.288048 C36.204005,23.057559 37.9641957,21.4706182 37.9641957,19.9899143 C37.9641957,18.5092104 36.204005,16.9222696 32.9771981,15.6917805 C29.5578678,14.3878759 24.8956516,13.6359052 19.9107413,13.6359052 C14.925831,13.6359052 10.2636148,14.3878759 6.8442845,15.6917805 C3.61747757,16.9222696 1.85728694,18.5092104 1.85728694,19.9899143 Z" id="Oval"></path>
            <path d="M10.0096894,2.88939834 C11.0888007,2.26637312 12.4126427,2.22520277 13.876673,2.69985073 C15.2054343,3.1306436 16.657554,3.98797315 18.1647233,5.21397364 C21.1766817,7.66403837 24.2900262,11.4865013 26.8813013,15.9747215 C29.4725765,20.4629417 31.2262542,25.0704086 31.8420933,28.9038734 C32.1502562,30.8221206 32.1666656,32.5083579 31.8753625,33.8744953 C31.5544045,35.3797068 30.856829,36.5056024 29.7777176,37.1286276 C28.6986063,37.7516528 27.3747643,37.7928232 25.910734,37.3181752 C24.5819727,36.8873823 23.1298531,36.0300528 21.6226837,34.8040523 C18.6107254,32.3539876 15.4973808,28.5315246 12.9061057,24.0433045 C10.3148306,19.5550843 8.56115282,14.9476174 7.94531371,11.1141525 C7.63715082,9.19590534 7.62074148,7.50966805 7.91204454,6.14353061 C8.23300251,4.63831918 8.93057808,3.51242355 10.0096894,2.88939834 Z M10.8669763,4.37426287 C9.58464915,5.11461482 9.09041341,7.43245503 9.63818211,10.8421963 C10.2186327,14.4553755 11.8985151,18.8689586 14.3909702,23.1860175 C16.8834254,27.5030765 19.8657592,31.1646888 22.7046389,33.4739634 C25.3836771,35.6532156 27.6381035,36.384115 28.9204307,35.6437631 C30.2027579,34.9034111 30.6969936,32.5855709 30.1492249,29.1758296 C29.5687743,25.5626504 27.8888919,21.1490674 25.3964368,16.8320084 C22.9039816,12.5149495 19.9216478,8.85333717 17.0827681,6.54406257 C14.4037299,4.36481032 12.1493035,3.63391093 10.8669763,4.37426287 Z" id="Oval"></path>
        </g>
    </g>
</svg>