<svg width="40" height="36" viewBox="0 0 40 36" version="1.1" xmlns="http://www.w3.org/2000/svg" xmlns:xlink="http://www.w3.org/1999/xlink">
<title>Xamarin logo</title>
<desc>Created using Figma</desc>
<g id="Canvas" transform="translate(-12153 -8670)">
<g id="Xamarin logo">
<g id="Logo">
<use xlink:href="#path0_fill" transform="translate(12153 8670)" fill="#3498DB"/>
</g>
</g>
</g>
<defs>
<path id="path0_fill" fill-rule="evenodd" d="M 8.86035 1.55518C 9.40332 0.617188 10.4609 0.00244141 11.542 0L 28.458 0C 29.5391 0.00195312 30.5957 0.617188 31.1396 1.55518L 39.5986 16.2881C 40.1338 17.2285 40.1338 18.458 39.5986 19.3984L 31.1396 34.1309C 30.5957 35.0693 29.5391 35.6841 28.458 35.686L 11.542 35.686C 11.0039 35.6851 10.4727 35.5327 10.0078 35.2642C 9.53711 34.9927 9.13379 34.6025 8.86035 34.1309L 0.401367 19.3984C -0.133789 18.458 -0.133789 17.2285 0.401367 16.2881L 8.86035 1.55518ZM 11.7656 8.61914C 11.7422 8.6167 11.7178 8.6167 11.6943 8.61914C 11.46 8.66357 11.3193 8.96777 11.4346 9.17676L 16.2666 17.8433L 11.4346 26.4976C 11.3486 26.6475 11.4023 26.8438 11.5225 26.9624C 11.5879 27.0269 11.6729 27.0684 11.7656 27.0674L 14.6836 27.0674C 14.8145 27.062 14.9404 26.9824 15.002 26.8657L 19.9521 18.0215C 19.9775 17.9775 19.9932 17.9287 19.999 17.8789L 20.0059 17.9155C 20.0137 17.9526 20.0273 17.9883 20.0469 18.0215L 24.9844 26.8657C 25.0479 26.9858 25.1797 27.0664 25.3154 27.0674L 28.2334 27.0674C 28.498 27.0698 28.6963 26.7285 28.5635 26.4976L 23.7324 17.8433L 28.5635 9.17676C 28.6035 9.10059 28.6094 9.01367 28.5889 8.93115C 28.5488 8.76611 28.4053 8.62061 28.2334 8.61914L 25.3154 8.61914C 25.1816 8.61768 25.0508 8.69287 24.9844 8.80908L 20.0469 17.6533C 20.0215 17.6968 20.0059 17.7456 19.999 17.7959C 19.9932 17.7456 19.9775 17.6968 19.9521 17.6533L 15.002 8.80908C 14.9375 8.69629 14.8125 8.62158 14.6836 8.61914L 11.7656 8.61914Z"/>
</defs>
</svg>
