<svg width="36" height="40" viewBox="0 0 36 40" version="1.1" xmlns="http://www.w3.org/2000/svg" xmlns:xlink="http://www.w3.org/1999/xlink">
<title>logo-android</title>
<desc>Created using Figma</desc>
<g id="Canvas" transform="translate(-11651 -8668)">
<g id="logo-android">
<g id="android">
<g id="Combined Shape">
<use xlink:href="#path0_fill" transform="translate(11651.5 8668)" fill="#7BB342"/>
</g>
</g>
</g>
</g>
<defs>
<path id="path0_fill" fill-rule="evenodd" d="M 17.5 1.25C 14.792 1.25 12.3066 2.10059 10.3652 3.51807L 8.02051 0L 6.97949 0.693359L 9.39453 4.31543C 7.44727 6.11328 6.25 8.55713 6.25 11.25L 28.75 11.25C 28.75 8.55713 27.5527 6.11328 25.6055 4.31543L 28.0205 0.693359L 26.9795 0L 24.6348 3.51807C 22.6934 2.10059 20.208 1.25 17.5 1.25ZM 15 37.4893L 15 31.25L 20 31.25L 20 37.4893C 20 38.8726 21.1191 40 22.5 40C 23.8906 40 25 38.876 25 37.4893L 25 31.25L 26.2559 31.25C 27.0703 31.25 27.793 30.8608 28.248 30.2588C 28.5625 29.8418 28.75 29.3228 28.75 28.7603L 28.75 12.5L 6.25 12.5L 6.25 28.7603C 6.25 30.1333 7.36621 31.25 8.74414 31.25L 10 31.25L 10 37.4893C 10 38.8726 11.1191 40 12.5 40C 12.8545 40 13.1904 39.9272 13.4951 39.7954C 13.6914 39.71 13.875 39.6001 14.041 39.4697C 14.627 39.0103 15 38.2939 15 37.4893ZM 32.5 12.5C 31.1094 12.5 30 13.624 30 15.0107L 30 24.9893C 30 25.7129 30.3057 26.3662 30.7959 26.8247C 31.0186 27.0337 31.2793 27.2026 31.5674 27.3188C 31.8555 27.4355 32.1699 27.5 32.5 27.5C 33.8906 27.5 35 26.376 35 24.9893L 35 15.0107C 35 13.6274 33.8809 12.5 32.5 12.5ZM 2.5 12.5C 1.10938 12.5 0 13.624 0 15.0107L 0 24.9893C 0 26.3726 1.11914 27.5 2.5 27.5C 3.89062 27.5 5 26.376 5 24.9893L 5 15.0107C 5 13.6274 3.88086 12.5 2.5 12.5ZM 21.25 6.25C 21.25 6.94531 21.8096 7.5 22.5 7.5C 23.1953 7.5 23.75 6.94043 23.75 6.25C 23.75 5.55469 23.1904 5 22.5 5C 21.8047 5 21.25 5.55957 21.25 6.25ZM 12.5 7.5C 11.8096 7.5 11.25 6.94531 11.25 6.25C 11.25 5.55957 11.8047 5 12.5 5C 13.1904 5 13.75 5.55469 13.75 6.25C 13.75 6.54102 13.6514 6.80859 13.4854 7.021C 13.2578 7.3125 12.9023 7.5 12.5 7.5Z"/>
</defs>
</svg>
